<?xml version="1.0" encoding="UTF-8" standalone="no"?><!DOCTYPE svg PUBLIC "-//W3C//DTD SVG 1.1//EN" "http://www.w3.org/Graphics/SVG/1.1/DTD/svg11.dtd"><svg width="100%" height="100%" viewBox="0 0 32 33" version="1.1" xmlns="http://www.w3.org/2000/svg" xmlns:xlink="http://www.w3.org/1999/xlink" xml:space="preserve" xmlns:serif="http://www.serif.com/" style="fill-rule:evenodd;clip-rule:evenodd;stroke-linejoin:round;stroke-miterlimit:2;"><g><path d="M1.113,8.262l12.38,0c2.244,0 4.182,0.801 5.814,2.401c1.616,1.616 2.424,3.554 2.424,5.813c-0,2.291 -0.808,4.245 -2.424,5.861c-1.617,1.6 -3.554,2.401 -5.814,2.401l-12.38,-0l0,-16.476Zm9.65,15.11c0.894,0 1.538,-0.29 1.93,-0.87c0.377,-0.565 0.612,-1.365 0.706,-2.401c0.078,-0.675 0.118,-1.883 0.118,-3.625c-0,-1.349 -0.047,-2.636 -0.141,-3.859c-0.095,-0.926 -0.33,-1.632 -0.707,-2.119c-0.392,-0.58 -1.027,-0.87 -1.906,-0.87l-1.412,-0l-0,13.744l1.412,0Z" style="fill-rule:nonzero;"/><rect x="22.884" y="8.262" width="7.673" height="16.475" style="fill-rule:nonzero;"/></g></svg>